# xmcd
#
# Track frame offsets:
# 150
# 18908
# 38459
# 54436
# 67732
# 78673
# 97397
# 111368
# 126231
# 143467
# 158411
# 172585
# 186544
# 209176
# 228529
#
# Disc length: 3324 seconds
#
#
# Revision: 0
# Processed by: cddbd v1.5.2PL0 Copyright (c) Steve Scherf et al.
# Submitted via: FreeRIP 2.35 
#
DISCID=c70cfa0f
DTITLE=The Judds - Spritual Reflections
DYEAR=1900
DGENRE=Country
TTITLE0=One Man Woman
TTITLE1=Young Love
TTITLE2=Not My Baby
TTITLE3=Let Me Tell You About Love
TTITLE4=Sleepless Nights
TTITLE5=Water Of Love
TTITLE6=Cadillac Red
TTITLE7=Do I Dare
TTITLE8=One Hundred
TTITLE9=John Deere Tractor
TTITLE10=Talk About Love
TTITLE11=Are The Roses Not Blooming
TTITLE12=More Love
TTITLE13=Believe In Love
TTITLE14=God Speed
EXTD=hendikin@gmail.com
EXTT0=
EXTT1=
EXTT2=
EXTT3=
EXTT4=
EXTT5=
EXTT6=
EXTT7=
EXTT8=
EXTT9=
EXTT10=
EXTT11=
EXTT12=
EXTT13=
EXTT14=
PLAYORDER=
